<?xml version="1.0" encoding="UTF-8" standalone="no"?>
<!-- Created with Inkscape (http://www.inkscape.org/) -->

<svg
   width="1080"
   height="1080"
   viewBox="0 0 1080 1080"
   version="1.1"
   id="svg1"
   inkscape:version="1.3.2 (091e20e, 2023-11-25)"
   sodipodi:docname="magnet.svg"
   xmlns:inkscape="http://www.inkscape.org/namespaces/inkscape"
   xmlns:sodipodi="http://sodipodi.sourceforge.net/DTD/sodipodi-0.dtd"
   xmlns="http://www.w3.org/2000/svg"
   xmlns:svg="http://www.w3.org/2000/svg">
  <sodipodi:namedview
     id="namedview1"
     pagecolor="#505050"
     bordercolor="#eeeeee"
     borderopacity="1"
     inkscape:showpageshadow="0"
     inkscape:pageopacity="0"
     inkscape:pagecheckerboard="0"
     inkscape:deskcolor="#505050"
     inkscape:document-units="px"
     inkscape:zoom="0.44726229"
     inkscape:cx="471.75897"
     inkscape:cy="465.0515"
     inkscape:window-width="1440"
     inkscape:window-height="847"
     inkscape:window-x="0"
     inkscape:window-y="25"
     inkscape:window-maximized="0"
     inkscape:current-layer="layer1" />
  <defs
     id="defs1">
    <linearGradient
       id="swatch9"
       inkscape:swatch="solid"
       gradientTransform="matrix(0.84352518,0.53708963,-0.74169918,0.67073267,918.25815,-635.83638)">
      <stop
         style="stop-color:#000000;stop-opacity:1;"
         offset="0"
         id="stop9" />
    </linearGradient>
  </defs>
  <g
     inkscape:label="Calque 1"
     inkscape:groupmode="layer"
     id="layer1">
    <g
       id="g16"
       transform="matrix(3.7795276,0,0,3.7795276,-1180.9315,-547.14197)">
      <g
         id="g9"
         transform="translate(-10.502123,-4.7736922)">
        <path
           id="path26"
           style="opacity:1;fill:#0880a0;fill-opacity:1;fill-rule:evenodd;stroke-width:6.76;stroke-linecap:round;stroke-linejoin:round;stroke-dasharray:none;paint-order:fill markers stroke"
           d="m 457.32764,347.1292 -55.73406,47.16405 -5.2e-4,5.1e-4 h -5.2e-4 v 5.2e-4 h -5.2e-4 c -10.24932,8.66864 -25.85889,9.42393 -36.10787,0.75499 -5.84996,-4.94815 -7.8554,-10.5632 -6.74532,-16.23673 l -14.34383,12.49587 -0.006,15.05025 c 1.49073,1.72 3.13103,3.37643 4.96869,4.93148 19.48594,16.47497 51.0566,16.51217 70.59673,0.0832 l 0.01,0.007 0.10645,-0.0899 47.02659,-39.65701 c 0.65845,-3.87177 0.0107,-2.55128 0.95653,-6.80734 0.17008,-0.76536 1.41155,-5.19322 0.55035,-6.05441 -0.12975,-0.12973 -0.42062,0.12973 -0.55035,0 -0.27964,-0.27964 0.0789,-2.43656 0,-2.75229 -0.0995,-0.39801 -0.45085,-0.7027 -0.55036,-1.10071 -0.33866,-1.35472 -0.11953,-3.1109 -0.55035,-4.40334 -0.22134,-0.66403 -0.27922,-0.80785 -0.37,-1.05627 l -0.21084,-0.0527 c 2.3e-4,0.18608 -0.0403,0.27452 -0.25115,-0.0641 z" />
        <path
           id="path26-5"
           style="fill:#ce496f;fill-opacity:1;fill-rule:evenodd;stroke-width:6.76;stroke-linecap:round;stroke-linejoin:round;stroke-dasharray:none;paint-order:fill markers stroke"
           d="m 401.35121,307.51611 -51.99321,43.96321 -0.10645,0.0899 0.008,0.007 c -2.12333,1.80686 -3.99998,3.74108 -5.65805,5.76451 l -0.35605,-1.05472 -11.19002,13.6741 3.10162,16.94212 c 1.11173,7.19301 4.44074,14.17313 9.91981,20.206 l 0.005,-14.25546 13.37851,-11.6551 c 0.19365,-5.03824 2.94289,-10.1905 7.77834,-15.02596 l 3.52485,-3.52484 39.4441,-33.55093 c 0.0793,-0.83367 0.10952,-1.6196 -0.0481,-2.24947 -0.81006,-3.24027 -2.34974,-6.18077 -3.30264,-9.35706 -0.22121,-0.73741 -2.38687,-8.99164 -2.75229,-9.35705 -0.53263,-0.53264 -0.87348,-0.16207 -1.65106,-0.55087 -0.0371,-0.0186 -0.0669,-0.0451 -0.10232,-0.0656 z" />
        <path
           id="path8-4-0-6-3"
           style="fill:#41c6f1;fill-opacity:1;stroke-width:0.260198;paint-order:fill markers stroke"
           d="m 445.22089,337.17839 -46.82764,39.62703 -5.1e-4,5.2e-4 h -5.2e-4 v 5.2e-4 h -5.2e-4 c -10.24933,8.66865 -25.85888,9.42342 -36.10787,0.75447 -0.53394,-0.45162 -1.01713,-0.9118 -1.48776,-1.37407 l -17.41393,15.04921 c 0.8807,0.87737 1.79667,1.73792 2.77554,2.56625 19.48596,16.47499 51.05658,16.51219 70.59673,0.0832 l 0.01,0.007 0.10645,-0.0899 50.06929,-42.22327 c -0.0452,-0.41805 -0.11022,-0.82212 -0.23151,-1.18597 -1.32898,-3.9869 0.15831,0.86797 -1.10122,-1.65106 -0.082,-0.16411 0.12973,-0.42114 0,-0.55087 -0.12975,-0.12973 -0.38626,0.082 -0.55036,0 -0.80272,-0.40137 -0.88038,-0.88039 -1.1007,-1.10071 -0.3892,-0.3892 -1.14,0.20442 -1.65107,0 -1.60705,-0.64283 -2.88384,-1.92293 -4.40334,-2.75177 -3.67491,-2.00449 -7.37439,-3.97822 -11.00863,-6.05493 -0.57436,-0.32821 -1.03686,-0.85502 -1.65107,-1.10071 -0.006,-0.002 -0.0152,-0.002 -0.0212,-0.005 z" />
        <path
           id="path8-4-0-6-3-39"
           style="fill:#fe8ea5;fill-opacity:1;stroke-width:0.260198;paint-order:fill markers stroke"
           d="m 389.39329,297.43352 v 5.2e-4 l -43.23612,36.55798 -0.10646,0.0894 0.008,0.007 c -19.05493,16.2149 -19.35973,42.21667 -0.97358,58.75921 l 17.45888,-15.08797 c -0.0849,-0.0699 -0.17629,-0.12777 -0.26045,-0.19896 -10.24909,-8.66912 -8.73752,-19.38479 0.75448,-28.87679 l 3.52485,-3.52485 37.84265,-32.18821 c -0.66112,-2.38672 -1.34748,-4.76174 -1.54616,-4.96042 -0.53263,-0.53264 -0.8735,-0.16156 -1.65106,-0.55036 -1.10414,-0.55206 -1.43904,-1.98887 -2.20194,-2.75177 -0.29012,-0.2901 -0.8106,-0.26077 -1.10071,-0.55087 -0.29008,-0.2901 -0.30418,-0.7725 -0.55035,-1.10071 -0.53842,-0.71789 -6.03643,-5.31443 -6.60528,-5.50405 -0.34814,-0.11604 -0.7526,0.11604 -1.10071,0 -0.0724,-0.0241 -0.17576,-0.0861 -0.25631,-0.11938 z" />
        <path
           id="path29"
           style="opacity:1;fill:#859bb5;fill-opacity:1;fill-rule:evenodd;stroke-width:6.76;stroke-linecap:round;stroke-linejoin:round;stroke-dasharray:none;paint-order:fill markers stroke"
           d="m 414.34507,304.47788 -15.34894,12.95425 -0.005,20.35483 12.67468,-10.7797 a 10.544751,10.544751 0 0 0 3.71295,-8.0393 l -0.007,-10.57455 c -0.0952,-0.95078 -0.34916,-2.42726 -1.02732,-3.91553 z" />
        <path
           id="path33"
           style="opacity:1;fill:#d3e2fe;fill-opacity:1;fill-rule:evenodd;stroke-width:6.76;stroke-linecap:round;stroke-linejoin:round;paint-order:stroke fill markers"
           d="m 396.79678,292.7649 a 6.1200831,6.1200831 0 0 0 -3.58582,1.43041 l -13.0049,10.96109 18.79059,12.41629 15.3572,-13.07414 c -0.52094,-1.14977 -1.29506,-2.30296 -2.44171,-3.22047 l -11.3869,-7.51169 a 6.1200831,6.1200831 0 0 0 -3.72846,-1.00149 z" />
        <path
           id="path31"
           style="opacity:1;fill:#859bb5;fill-opacity:1;fill-rule:evenodd;stroke-width:6.76;stroke-linecap:round;stroke-linejoin:round;stroke-dasharray:none;paint-order:fill markers stroke"
           d="m 475.19613,344.56433 -15.44557,12.28452 -0.0506,21.04316 12.78113,-10.76937 a 10.567135,10.567135 0 0 0 3.75791,-8.07289 l 0.008,-10.56318 c -0.10151,-0.96763 -0.36337,-2.44193 -1.0511,-3.92224 z" />
        <path
           id="path30"
           style="opacity:1;fill:#d3e2fe;fill-opacity:1;fill-rule:evenodd;stroke-width:6.76;stroke-linecap:round;stroke-linejoin:round;stroke-dasharray:none;paint-order:fill markers stroke"
           d="m 454.55812,330.87266 a 6.1074146,6.1074146 0 0 0 -3.57963,1.42988 l -13.00334,10.98021 21.76921,14.36398 15.46676,-13.04778 c -0.50791,-1.10376 -1.25066,-2.20756 -2.33423,-3.09904 l -14.59497,-9.62887 a 6.1074146,6.1074146 0 0 0 -3.7238,-0.99838 z" />
      </g>
    </g>
    <path
       id="path11-24-18-0"
       style="fill:#fdd835;fill-opacity:1;fill-rule:evenodd;stroke-width:5.17935;stroke-linecap:round;stroke-linejoin:round;paint-order:stroke fill markers"
       d="m 601.64644,48.11742 a 85.09705,64.572813 3.1376349e-6 0 0 -68.9002,23.00602 85.09705,64.572813 3.1376349e-6 0 0 -19.7519,41.32078 v 18.23558 a 85.09705,64.57281 6.9693686e-7 0 0 0,2.69654 v 0.65261 l 0.026,0.0189 a 85.09705,64.57281 6.9693686e-7 0 0 30.2321,49.37352 85.09705,64.57281 6.9693686e-7 0 0 119.8884,-7.95772 85.09705,64.57281 6.9693686e-7 0 0 19.766,-40.85817 v -0.008 l -0.023,-18.30599 a 85.09705,64.572813 3.1376349e-6 0 0 -30.2531,-53.12546 85.09705,64.572813 3.1376349e-6 0 0 -50.9865,-15.04648 z" />
    <path
       id="path11-24-18-0-2"
       style="fill:#e88102;fill-opacity:1;fill-rule:evenodd;stroke-width:5.17935;stroke-linecap:round;stroke-linejoin:round;paint-order:stroke fill markers"
       d="m 512.99434,114.92265 v 15.75715 a 85.09705,64.57281 6.9693686e-7 0 0 0,2.69654 v 0.65261 l 0.026,0.0189 a 85.09705,64.57281 6.9693686e-7 0 0 30.2321,49.37352 85.09705,64.57281 6.9693686e-7 0 0 119.8884,-7.95772 85.09705,64.57281 6.9693686e-7 0 0 19.766,-40.85817 v -0.008 l -0.023,-18.36227 a 85.09705,64.572813 1.0759591e-6 0 1 -0.011,0.1372 v 18.22503 0.008 a 85.09705,64.57281 6.9693686e-7 0 1 -19.7642,40.85817 85.09705,64.57281 6.9693686e-7 0 1 -49.9188,21.90312 l 0.026,-21.29099 -0.019,-0.0302 a 85.09705,64.572813 1.0759591e-6 0 1 -69.9697,-13.94363 85.09705,64.572813 1.0759591e-6 0 1 -30.2409,-47.173 z" />
    <path
       id="path11-24-1-9-5"
       style="fill:#f39e09;fill-opacity:1;fill-rule:evenodd;stroke-width:5.17935;stroke-linecap:round;stroke-linejoin:round;paint-order:stroke fill markers"
       d="m 682.87724,117.77751 a 85.09705,64.572813 1.0077566e-6 0 1 -19.6164,36.35864 85.09705,64.572813 1.0077566e-6 0 1 -50.0472,21.91718 l 0.011,0.0189 -0.026,21.29095 a 85.09705,64.57281 6.9693686e-7 0 0 49.9188,-21.90312 85.09705,64.57281 6.9693686e-7 0 0 19.7642,-40.85817 v -0.008 z" />
    <path
       id="path11-2-7-3"
       style="fill:#f39e09;fill-opacity:1;fill-rule:evenodd;stroke-width:5.17935;stroke-linecap:round;stroke-linejoin:round;paint-order:stroke fill markers"
       d="m 582.83284,126.28481 a 85.09705,64.57281 0 0 0 -69.8868,-13.98621 85.09705,64.57281 0 0 0 30.2881,49.79614 85.09705,64.57281 0 0 0 69.9847,13.96932 85.09705,64.57281 0 0 0 -30.386,-49.77925 z" />
    <ellipse
       style="fill:#f39e09;fill-opacity:1;fill-rule:evenodd;stroke-width:10.8914;stroke-linecap:round;stroke-linejoin:round;paint-order:stroke fill markers"
       id="path12-48-8"
       cx="502.61533"
       cy="-252.25122"
       transform="matrix(0.84352518,0.53708963,-0.7416992,0.67073266,0,0)"
       rx="27.048204"
       ry="25.812035" />
    <path
       id="path11-24-18-0-4"
       style="fill:#fdd835;fill-opacity:1;fill-rule:evenodd;stroke-width:6.33037;stroke-linecap:round;stroke-linejoin:round;paint-order:stroke fill markers"
       d="m 700.00994,280.0818 a 104.00865,78.923196 3.1376349e-6 0 0 -84.2123,28.1188 104.00865,78.923196 3.1376349e-6 0 0 -24.1414,50.5038 v 22.2881 a 104.00865,78.923192 6.9693686e-7 0 0 0,3.2959 v 0.7976 l 0.034,0.023 a 104.00865,78.923192 6.9693686e-7 0 0 36.9507,60.346 104.00865,78.923192 6.9693686e-7 0 0 146.5319,-9.7262 104.00865,78.923192 6.9693686e-7 0 0 24.1587,-49.9383 v -0.01 l -0.03,-22.3743 a 104.00865,78.923196 3.1376349e-6 0 0 -36.9764,-64.9317 104.00865,78.923196 3.1376349e-6 0 0 -62.3175,-18.3904 z" />
    <path
       id="path11-24-18-0-2-1"
       style="fill:#e88102;fill-opacity:1;fill-rule:evenodd;stroke-width:6.33037;stroke-linecap:round;stroke-linejoin:round;paint-order:stroke fill markers"
       d="m 591.65624,361.7336 v 19.2589 a 104.00865,78.923192 6.9693686e-7 0 0 0,3.2959 v 0.7976 l 0.034,0.023 a 104.00865,78.923192 6.9693686e-7 0 0 36.9507,60.346 104.00865,78.923192 6.9693686e-7 0 0 146.5319,-9.7262 104.00865,78.923192 6.9693686e-7 0 0 24.1587,-49.9383 v -0.01 l -0.03,-22.443 a 104.00865,78.923196 1.0759591e-6 0 1 -0.011,0.1678 v 22.2753 0.01 a 104.00865,78.923192 6.9693686e-7 0 1 -24.1565,49.9383 104.00865,78.923192 6.9693686e-7 0 1 -61.0126,26.7708 l 0.034,-26.0226 -0.023,-0.038 a 104.00865,78.923196 1.0759591e-6 0 1 -85.5195,-17.0424 104.00865,78.923196 1.0759591e-6 0 1 -36.9614,-57.6565 z" />
    <path
       id="path11-24-1-9-5-7"
       style="fill:#f39e09;fill-opacity:1;fill-rule:evenodd;stroke-width:6.33037;stroke-linecap:round;stroke-linejoin:round;paint-order:stroke fill markers"
       d="m 799.29314,365.2229 a 104.00865,78.923196 1.0077566e-6 0 1 -23.9758,44.4388 104.00865,78.923196 1.0077566e-6 0 1 -61.1695,26.788 l 0.011,0.019 -0.034,26.0226 a 104.00865,78.923192 6.9693686e-7 0 0 61.0126,-26.7708 104.00865,78.923192 6.9693686e-7 0 0 24.1564,-49.9383 v -0.01 z" />
    <path
       id="path11-2-7-3-1"
       style="fill:#f39e09;fill-opacity:1;fill-rule:evenodd;stroke-width:6.33037;stroke-linecap:round;stroke-linejoin:round;paint-order:stroke fill markers"
       d="m 677.01544,375.6208 a 104.00865,78.923192 0 0 0 -85.4181,-17.0944 104.00865,78.923192 0 0 0 37.0191,60.8626 104.00865,78.923192 0 0 0 85.5378,17.0738 104.00865,78.923192 0 0 0 -37.1388,-60.842 z" />
    <ellipse
       style="fill:#f39e09;fill-opacity:1;fill-rule:evenodd;stroke-width:13.3119;stroke-linecap:round;stroke-linejoin:round;paint-order:stroke fill markers"
       id="path12-48-8-3"
       cx="759.94727"
       cy="-95.031532"
       transform="matrix(0.84352518,0.53708963,-0.7416992,0.67073266,0,0)"
       rx="33.05928"
       ry="31.548388" />
    <path
       id="path11-24-18-0-6"
       style="fill:#fdd835;fill-opacity:1;fill-rule:evenodd;stroke-width:5.17939;stroke-linecap:round;stroke-linejoin:round;paint-order:stroke fill markers"
       d="m 968.94174,333.2956 a 85.097988,64.573524 3.1376349e-6 0 0 -68.901,23.0063 85.097988,64.573524 3.1376349e-6 0 0 -19.7521,41.3212 v 18.2358 a 85.097988,64.57352 6.9693686e-7 0 0 0,2.6966 v 0.6526 l 0.027,0.019 a 85.097988,64.57352 6.9693686e-7 0 0 30.2323,49.374 85.097988,64.57352 6.9693686e-7 0 0 119.88976,-7.9578 85.097988,64.57352 6.9693686e-7 0 0 19.7662,-40.8586 v -0.01 l -0.023,-18.3061 a 85.097988,64.573524 3.1376349e-6 0 0 -30.2534,-53.1261 85.097988,64.573524 3.1376349e-6 0 0 -50.98706,-15.0466 z" />
    <path
       id="path11-24-18-0-2-5"
       style="fill:#e88102;fill-opacity:1;fill-rule:evenodd;stroke-width:5.17939;stroke-linecap:round;stroke-linejoin:round;paint-order:stroke fill markers"
       d="m 880.28864,400.1016 v 15.7573 a 85.097988,64.57352 6.9693686e-7 0 0 0,2.6966 v 0.6526 l 0.027,0.019 a 85.097988,64.57352 6.9693686e-7 0 0 30.2323,49.374 85.097988,64.57352 6.9693686e-7 0 0 119.88976,-7.9578 85.097988,64.57352 6.9693686e-7 0 0 19.7662,-40.8586 v -0.01 l -0.023,-18.3624 a 85.097988,64.573524 1.0759591e-6 0 1 -0.011,0.1372 v 18.2252 0.01 a 85.097988,64.57352 6.9693686e-7 0 1 -19.7644,40.8586 85.097988,64.57352 6.9693686e-7 0 1 -49.91936,21.9034 l 0.026,-21.2913 -0.019,-0.03 a 85.097988,64.573524 1.0759591e-6 0 1 -69.9705,-13.9438 85.097988,64.573524 1.0759591e-6 0 1 -30.2412,-47.1735 z" />
    <path
       id="path11-24-1-9-5-31"
       style="fill:#f39e09;fill-opacity:1;fill-rule:evenodd;stroke-width:5.17939;stroke-linecap:round;stroke-linejoin:round;paint-order:stroke fill markers"
       d="m 1050.1734,402.9565 a 85.097988,64.573524 1.0077566e-6 0 1 -19.6166,36.359 85.097988,64.573524 1.0077566e-6 0 1 -50.04776,21.9175 l 0.011,0.015 -0.026,21.2912 a 85.097988,64.57352 6.9693686e-7 0 0 49.91936,-21.9034 85.097988,64.57352 6.9693686e-7 0 0 19.7644,-40.8586 v -0.01 z" />
    <path
       id="path11-2-7-3-0"
       style="fill:#f39e09;fill-opacity:1;fill-rule:evenodd;stroke-width:5.17939;stroke-linecap:round;stroke-linejoin:round;paint-order:stroke fill markers"
       d="m 950.12794,411.4639 a 85.097988,64.57352 0 0 0 -69.8875,-13.9864 85.097988,64.57352 0 0 0 30.2884,49.7967 85.097988,64.57352 0 0 0 69.9854,13.9695 85.097988,64.57352 0 0 0 -30.3863,-49.7798 z" />
    <ellipse
       style="fill:#f39e09;fill-opacity:1;fill-rule:evenodd;stroke-width:10.8915;stroke-linecap:round;stroke-linejoin:round;paint-order:stroke fill markers"
       id="path12-48-8-1"
       cx="977.52002"
       cy="-207.35628"
       transform="matrix(0.84352518,0.53708963,-0.7416992,0.67073266,0,0)"
       rx="27.048502"
       ry="25.812319" />
    <path
       id="path11-24-18-0-47"
       style="fill:#fdd835;fill-opacity:1;fill-rule:evenodd;stroke-width:5.75093;stroke-linecap:round;stroke-linejoin:round;paint-order:stroke fill markers"
       d="m 785.03744,536.4741 a 94.48819,71.698939 3.1376349e-6 0 0 -76.5039,25.545 94.48819,71.698939 3.1376349e-6 0 0 -21.9317,45.8808 v 20.248 a 94.48819,71.698935 6.9693686e-7 0 0 0,2.9942 v 0.7246 l 0.03,0.019 a 94.48819,71.698935 6.9693686e-7 0 0 33.5684,54.8223 94.48819,71.698935 6.9693686e-7 0 0 133.1191,-8.836 94.48819,71.698935 6.9693686e-7 0 0 21.9473,-45.3671 v -0.01 l -0.026,-20.3262 a 94.48819,71.698939 3.1376349e-6 0 0 -33.5918,-58.9882 94.48819,71.698939 3.1376349e-6 0 0 -56.6133,-16.7071 z" />
    <path
       id="path11-24-18-0-2-9"
       style="fill:#e88102;fill-opacity:1;fill-rule:evenodd;stroke-width:5.75093;stroke-linecap:round;stroke-linejoin:round;paint-order:stroke fill markers"
       d="m 686.60184,610.6519 v 17.496 a 94.48819,71.698935 6.9693686e-7 0 0 0,2.9942 v 0.7246 l 0.03,0.019 a 94.48819,71.698935 6.9693686e-7 0 0 33.5684,54.8223 94.48819,71.698935 6.9693686e-7 0 0 133.1191,-8.836 94.48819,71.698935 6.9693686e-7 0 0 21.9473,-45.3671 v -0.01 l -0.026,-20.3887 a 94.48819,71.698939 1.0759591e-6 0 1 -0.011,0.1524 v 20.2363 0.01 a 94.48819,71.698935 6.9693686e-7 0 1 -21.9453,45.3672 94.48819,71.698935 6.9693686e-7 0 1 -55.4277,24.3203 l 0.03,-23.6406 -0.019,-0.034 a 94.48819,71.698939 1.0759591e-6 0 1 -77.6914,-15.4824 94.48819,71.698939 1.0759591e-6 0 1 -33.5781,-52.3789 z" />
    <path
       id="path11-24-1-9-5-6"
       style="fill:#f39e09;fill-opacity:1;fill-rule:evenodd;stroke-width:5.75093;stroke-linecap:round;stroke-linejoin:round;paint-order:stroke fill markers"
       d="m 875.23274,613.8218 a 94.48819,71.698939 1.0077566e-6 0 1 -21.7813,40.3711 94.48819,71.698939 1.0077566e-6 0 1 -55.5703,24.3359 l 0.011,0.019 -0.03,23.6406 a 94.48819,71.698935 6.9693686e-7 0 0 55.4278,-24.3203 94.48819,71.698935 6.9693686e-7 0 0 21.9453,-45.3672 v -0.01 z" />
    <path
       id="path11-2-7-3-6"
       style="fill:#f39e09;fill-opacity:1;fill-rule:evenodd;stroke-width:5.75093;stroke-linecap:round;stroke-linejoin:round;paint-order:stroke fill markers"
       d="m 764.14764,623.2679 a 94.48819,71.698935 0 0 0 -77.5994,-15.5297 94.48819,71.698935 0 0 0 33.6306,55.2916 94.48819,71.698935 0 0 0 77.7081,15.5109 94.48819,71.698935 0 0 0 -33.7393,-55.2728 z" />
    <ellipse
       style="fill:#f39e09;fill-opacity:1;fill-rule:evenodd;stroke-width:12.0934;stroke-linecap:round;stroke-linejoin:round;paint-order:stroke fill markers"
       id="path12-48-8-6"
       cx="1011.075"
       cy="77.354614"
       transform="matrix(0.84352518,0.53708963,-0.7416992,0.67073266,0,0)"
       rx="30.03319"
       ry="28.660599" />
    <path
       id="path11-24-18-0-8"
       style="fill:#fdd835;fill-opacity:1;fill-rule:evenodd;stroke-width:5.75093;stroke-linecap:round;stroke-linejoin:round;paint-order:stroke fill markers"
       d="m 408.12074,304.3571 a 94.48819,71.698939 3.1376349e-6 0 0 -76.504,25.545 94.48819,71.698939 3.1376349e-6 0 0 -21.9316,45.8808 v 20.248 a 94.48819,71.698935 6.9693686e-7 0 0 0,2.9942 v 0.7246 l 0.03,0.019 a 94.48819,71.698935 6.9693686e-7 0 0 33.5684,54.8223 94.48819,71.698935 6.9693686e-7 0 0 133.1191,-8.836 94.48819,71.698935 6.9693686e-7 0 0 21.9473,-45.3671 v -0.01 l -0.026,-20.3262 a 94.48819,71.698939 3.1376349e-6 0 0 -33.5918,-58.9882 94.48819,71.698939 3.1376349e-6 0 0 -56.6133,-16.7071 z" />
    <path
       id="path11-24-18-0-2-14"
       style="fill:#e88102;fill-opacity:1;fill-rule:evenodd;stroke-width:5.75093;stroke-linecap:round;stroke-linejoin:round;paint-order:stroke fill markers"
       d="m 309.68514,378.5349 v 17.496 a 94.48819,71.698935 6.9693686e-7 0 0 0,2.9942 v 0.7246 l 0.03,0.019 a 94.48819,71.698935 6.9693686e-7 0 0 33.5684,54.8223 94.48819,71.698935 6.9693686e-7 0 0 133.1191,-8.836 94.48819,71.698935 6.9693686e-7 0 0 21.9473,-45.3671 v -0.01 l -0.026,-20.3887 a 94.48819,71.698939 1.0759591e-6 0 1 -0.011,0.1524 v 20.2363 0.01 a 94.48819,71.698935 6.9693686e-7 0 1 -21.9453,45.3672 94.48819,71.698935 6.9693686e-7 0 1 -55.4277,24.3203 l 0.03,-23.6406 -0.019,-0.034 a 94.48819,71.698939 1.0759591e-6 0 1 -77.6914,-15.4824 94.48819,71.698939 1.0759591e-6 0 1 -33.5782,-52.3789 z" />
    <path
       id="path11-24-1-9-5-8"
       style="fill:#f39e09;fill-opacity:1;fill-rule:evenodd;stroke-width:5.75093;stroke-linecap:round;stroke-linejoin:round;paint-order:stroke fill markers"
       d="m 498.31594,381.7048 a 94.48819,71.698939 1.0077566e-6 0 1 -21.7812,40.3711 94.48819,71.698939 1.0077566e-6 0 1 -55.5703,24.3359 l 0.011,0.019 -0.03,23.6406 a 94.48819,71.698935 6.9693686e-7 0 0 55.4278,-24.3203 94.48819,71.698935 6.9693686e-7 0 0 21.9453,-45.3672 v -0.01 z" />
    <path
       id="path11-2-7-3-8"
       style="fill:#f39e09;fill-opacity:1;fill-rule:evenodd;stroke-width:5.75093;stroke-linecap:round;stroke-linejoin:round;paint-order:stroke fill markers"
       d="m 387.23094,391.1509 a 94.48819,71.698935 0 0 0 -77.5994,-15.5297 94.48819,71.698935 0 0 0 33.6306,55.2916 94.48819,71.698935 0 0 0 77.7081,15.5109 94.48819,71.698935 0 0 0 -33.7393,-55.2728 z" />
    <ellipse
       style="fill:#f39e09;fill-opacity:1;fill-rule:evenodd;stroke-width:12.0934;stroke-linecap:round;stroke-linejoin:round;paint-order:stroke fill markers"
       id="path12-48-8-4"
       cx="570.297"
       cy="84.243195"
       transform="matrix(0.84352518,0.53708963,-0.7416992,0.67073266,0,0)"
       rx="30.03319"
       ry="28.660599" />
  </g>
</svg>
